# xmcd
#
# Track frame offsets: 
#        150
#        20203
#        31100
#        49501
#        70169
#        87110
#        111986
#        127181
#        150157
#
# Disc length: 2223 seconds
#
# Revision: 0
# Processed by: cddbd v1.5.2PL0 Copyright (c) Steve Scherf et al.
# Submitted via: ExactAudioCopyFreeDBPlugin 1.0
#
DISCID=6c08ad09
DTITLE=Ramon Goose - Long Road To Tiznit
DYEAR=2017
DGENRE=Blues
TTITLE0=Come on in my kitchen
TTITLE1=Futa
TTITLE2=Sahara hands
TTITLE3=Marrakech sunset
TTITLE4=Wandering sheikh
TTITLE5=Long road to Tiznit
TTITLE6=Morning light
TTITLE7=Goin' home
TTITLE8=Who do you love?
EXTD=
EXTT0=
EXTT1=
EXTT2=
EXTT3=
EXTT4=
EXTT5=
EXTT6=
EXTT7=
EXTT8=
PLAYORDER=
